<?xml version="1.0" encoding="UTF-8"?>
<!-- Generator: visioncortex VTracer 0.6.3 -->
<svg version="1.1" xmlns="http://www.w3.org/2000/svg" width="1280" height="717">
<path d="M0 0 C422.4 0 844.8 0 1280 0 C1280 236.61 1280 473.22 1280 717 C857.6 717 435.2 717 0 717 C0 480.39 0 243.78 0 0 Z " fill="#FAFDFF" transform="translate(0,0)"/>
<path d="M0 0 C1.22 -0.04 2.44 -0.07 3.7 -0.11 C17.01 -0.24 27.31 4.34 37 13.38 C48.69 25.36 52.83 39.43 52.81 55.77 C52.58 70.47 47.12 82.42 37.05 93.08 C26.01 103.25 15.44 105.9 0.81 105.88 C-0.48 105.9 -1.78 105.93 -3.11 105.96 C-17.51 105.99 -27.82 100.76 -38.44 91.38 C-48.87 80.63 -53.48 66.14 -53.44 51.38 C-52.36 37.34 -46.75 21.79 -36.02 12.15 C-24.24 4.05 -14.26 0.16 0 0 Z " fill="#FE5002" transform="translate(978.4375,305.625)"/>
<path d="M0 0 C1.17 -0.02 2.34 -0.03 3.54 -0.05 C5.44 -0.05 5.44 -0.05 7.38 -0.05 C8.68 -0.06 9.98 -0.06 11.33 -0.07 C14.09 -0.09 16.86 -0.09 19.62 -0.08 C23.14 -0.08 26.66 -0.11 30.18 -0.15 C33.56 -0.18 36.93 -0.17 40.31 -0.17 C41.57 -0.19 42.82 -0.21 44.11 -0.22 C53.25 -0.15 59.6 1.86 66.9 7.38 C74.64 15.41 78.31 23.65 78.31 34.92 C77.79 45.13 75.94 52.29 68.31 59.42 C62.66 63.42 62.66 63.42 59.31 63.42 C61.37 68.64 63.87 73.06 67.06 77.67 C67.95 78.99 68.84 80.31 69.72 81.62 C71.31 83.96 72.91 86.28 74.52 88.59 C80.38 97.25 80.38 97.25 79.31 103.42 C77.15 105.58 72.54 104.74 69.56 104.79 C68.75 104.83 67.94 104.87 67.1 104.91 C62.98 104.97 60.94 104.88 57.53 102.4 C54.9 98.87 52.7 95.25 50.56 91.42 C49.67 89.91 48.77 88.4 47.87 86.89 C46.24 84.12 44.78 81.34 43.44 78.42 C41.54 74.64 39.78 71.99 36.31 69.42 C29.22 67.86 21.45 68.27 14.31 69.42 C12.4 71.33 13.1 74.84 13.06 77.45 C13.03 78.89 13 80.34 12.96 81.79 C12.92 84.07 12.87 86.36 12.83 88.65 C12.79 90.85 12.74 93.06 12.69 95.26 C12.68 95.95 12.67 96.63 12.66 97.34 C12.54 102.19 12.54 102.19 10.31 104.42 C7.8 104.65 5.44 104.74 2.94 104.73 C1.93 104.76 1.93 104.76 0.9 104.78 C-1.92 104.78 -4.28 104.6 -6.88 103.48 C-9.84 100.11 -9.24 96.46 -9.19 92.13 C-9.2 91.18 -9.2 90.23 -9.21 89.25 C-9.22 86.1 -9.2 82.95 -9.19 79.79 C-9.19 77.61 -9.19 75.42 -9.19 73.24 C-9.19 68.65 -9.18 64.07 -9.16 59.49 C-9.13 53.61 -9.13 47.73 -9.14 41.84 C-9.15 37.33 -9.14 32.82 -9.13 28.3 C-9.13 26.13 -9.13 23.96 -9.13 21.79 C-9.13 18.77 -9.12 15.74 -9.09 12.71 C-9.1 11.81 -9.1 10.91 -9.11 9.98 C-9.1 9.15 -9.09 8.33 -9.08 7.48 C-9.07 6.76 -9.07 6.05 -9.07 5.31 C-8.06 0.31 -4.47 0.04 0 0 Z " fill="#FE5002" transform="translate(819.689697265625,305.580078125)"/>
<path d="M0 0 C1.17 -0.01 2.34 -0.02 3.55 -0.03 C5.47 -0.04 5.47 -0.04 7.43 -0.04 C8.74 -0.05 10.05 -0.05 11.39 -0.06 C14.18 -0.07 16.96 -0.08 19.74 -0.08 C23.28 -0.08 26.82 -0.11 30.37 -0.14 C33.76 -0.16 37.16 -0.16 40.55 -0.17 C42.45 -0.19 42.45 -0.19 44.38 -0.2 C54.36 -0.18 62.23 1.01 69.67 8 C78.07 17.79 80.44 28.58 79.52 41.16 C77.9 49.35 73.71 55.59 67.52 61.16 C64.8 62.84 63.78 63.16 60.52 63.16 C63.23 69.08 66.35 74.64 69.9 80.1 C70.28 80.69 70.66 81.28 71.06 81.9 C72.91 84.73 74.78 87.54 76.69 90.33 C77.66 91.76 77.66 91.76 78.65 93.22 C79.23 94.06 79.81 94.9 80.4 95.76 C81.52 98.16 81.52 98.16 81.45 100.84 C80.52 103.16 80.52 103.16 78.92 104.48 C75.54 105.44 72.59 105.29 69.08 105.1 C67.79 105.05 66.49 104.99 65.15 104.94 C59.72 103.78 57.48 100.56 54.41 96.07 C53.73 94.94 53.05 93.82 52.35 92.65 C51.98 92.05 51.61 91.44 51.23 90.81 C50.47 89.54 49.7 88.26 48.94 86.99 C47.77 85.03 46.59 83.08 45.41 81.13 C39.68 71.62 39.68 71.62 38.52 68.16 C30.6 68.49 22.68 68.82 14.52 69.16 C14.57 72.32 14.57 72.32 14.63 75.55 C14.65 77.6 14.67 79.65 14.69 81.7 C14.7 83.12 14.72 84.55 14.75 85.97 C14.78 88.01 14.8 90.06 14.81 92.11 C14.83 93.34 14.85 94.57 14.86 95.84 C14.49 99.44 13.68 101.3 11.52 104.16 C8.26 105.66 4.91 105.14 1.4 104.85 C0.34 104.77 -0.71 104.69 -1.8 104.61 C-4.48 104.16 -4.48 104.16 -6.48 102.16 C-6.75 99.39 -6.75 99.39 -6.78 95.82 C-6.79 95.16 -6.8 94.51 -6.81 93.84 C-6.83 91.69 -6.84 89.53 -6.86 87.38 C-6.87 85.89 -6.89 84.39 -6.91 82.9 C-6.95 78.96 -6.99 75.02 -7.02 71.08 C-7.07 64.78 -7.14 58.47 -7.21 52.17 C-7.23 49.96 -7.25 47.76 -7.26 45.55 C-7.28 44.2 -7.29 42.86 -7.3 41.51 C-7.31 40.33 -7.32 39.15 -7.33 37.93 C-7.29 35.2 -7.29 35.2 -8.48 33.16 C-8.71 26.63 -8.71 26.63 -7.48 24.16 C-7.34 22.43 -7.25 20.7 -7.2 18.97 C-7.16 17.94 -7.12 16.92 -7.08 15.86 C-7.01 13.68 -6.94 11.5 -6.87 9.33 C-6.84 8.3 -6.8 7.28 -6.76 6.22 C-6.73 5.27 -6.7 4.33 -6.67 3.35 C-6.3 -0.93 -3.76 0.02 0 0 Z " fill="#0E2B3C" transform="translate(313.478515625,305.8388671875)"/>
<path d="M0 0 C0.91 -0.01 1.81 -0.01 2.74 -0.02 C4.19 -0.01 4.19 -0.01 5.68 0.01 C7.19 0.01 7.19 0.01 8.74 0.01 C10.87 0.01 13.01 0.02 15.15 0.04 C18.39 0.06 21.62 0.06 24.86 0.05 C26.95 0.06 29.03 0.06 31.11 0.07 C32.07 0.07 33.02 0.07 34.01 0.07 C46.43 0.2 55.69 2.09 64.98 10.56 C74.03 19.98 74.83 30.81 74.63 43.17 C74.37 49.23 73.01 53.55 69.29 58.37 C68.78 59.09 68.28 59.82 67.75 60.56 C62.9 66.82 56.71 69.9 49.29 72.37 C46.42 72.53 43.56 72.63 40.69 72.69 C39.85 72.71 39.01 72.73 38.14 72.75 C35.46 72.82 32.78 72.88 30.1 72.93 C28.29 72.98 26.47 73.02 24.65 73.07 C20.2 73.17 15.75 73.27 11.29 73.37 C11.27 74.31 11.24 75.24 11.22 76.2 C11.12 79.66 11.02 83.11 10.92 86.56 C10.88 88.06 10.84 89.56 10.8 91.05 C10.74 93.2 10.67 95.35 10.61 97.49 C10.57 98.79 10.54 100.08 10.5 101.41 C10.29 104.37 10.29 104.37 9.29 105.37 C6.66 105.5 4.06 105.56 1.42 105.56 C0.68 105.57 -0.05 105.58 -0.81 105.6 C-4.64 105.61 -6.44 105.55 -9.71 103.37 C-10.86 98.89 -10.85 94.39 -10.84 89.78 C-10.84 89.05 -10.84 88.31 -10.84 87.55 C-10.85 85.13 -10.84 82.71 -10.84 80.29 C-10.84 78.58 -10.84 76.88 -10.84 75.18 C-10.84 71.61 -10.84 68.04 -10.84 64.47 C-10.83 59.94 -10.84 55.41 -10.84 50.89 C-10.85 47.37 -10.84 43.85 -10.84 40.33 C-10.84 38.66 -10.84 36.99 -10.84 35.33 C-10.85 30.01 -10.8 24.69 -10.71 19.37 C-10.7 18.61 -10.69 17.85 -10.68 17.07 C-10.65 14.85 -10.59 12.63 -10.51 10.41 C-10.48 9.12 -10.44 7.84 -10.41 6.52 C-9.71 3.37 -9.71 3.37 -7.45 1.46 C-4.73 0.38 -2.9 -0 0 0 Z " fill="#FE5002" transform="translate(1073.70751953125,304.627685546875)"/>
<path d="M0 0 C1.18 -0.02 2.36 -0.04 3.58 -0.06 C13.43 -0.11 22.1 1.01 29.93 7.38 C37.58 14.97 42.11 23.34 42.21 34.11 C42.08 34.82 41.95 35.52 41.81 36.25 C38.07 38.75 36.31 38.41 31.88 38.12 C30.04 38.03 30.04 38.03 28.16 37.93 C24.33 37.15 23.15 36.32 20.81 33.25 C19.76 31.21 19.76 31.21 18.94 29.19 C17.45 26.03 16.89 25.3 13.81 23.31 C6.05 20.56 -2.87 19.73 -10.75 22.56 C-14.82 24.44 -14.82 24.44 -18.19 27.25 C-18.57 29.24 -18.91 31.24 -19.19 33.25 C-10.62 38.55 -1.81 40.85 7.92 43.07 C20.86 46.05 33.25 49.29 40.81 60.94 C45.05 68.02 45.75 74.06 44.81 82.25 C42.36 89.67 38.66 96.23 31.81 100.25 C17.36 107.45 -1 108.94 -16.59 104.22 C-26.32 100.58 -34.9 95.88 -40.12 86.56 C-42.59 81.11 -43.77 75.24 -43.19 69.25 C-42.19 67.43 -42.19 67.43 -40.19 66.25 C-37.42 65.9 -34.95 65.74 -32.19 65.75 C-31.46 65.72 -30.74 65.69 -29.99 65.66 C-27.88 65.66 -27.88 65.66 -24.19 66.25 C-21.97 68.92 -21.26 70.98 -20.31 74.31 C-18.63 78.7 -15.88 80.42 -11.75 82.44 C-0.93 85.87 11.31 85.4 21.81 81.25 C22.12 79.86 22.38 78.46 22.62 77.06 C22.85 75.9 22.85 75.9 23.08 74.71 C22.66 70.89 20.74 69.61 17.81 67.25 C14.73 65.76 14.73 65.76 11.25 64.75 C10.29 64.44 10.29 64.44 9.31 64.13 C4.66 62.69 -0.04 61.54 -4.78 60.43 C-18.06 57.29 -31.34 53.21 -39.19 41.19 C-41.89 33.2 -41.18 24.4 -37.75 16.81 C-33.28 8.9 -26.67 4.19 -18.19 1.25 C-12.18 -0.19 -6.15 0.03 0 0 Z " fill="#101828" transform="translate(461.1875,305.75)"/>
<path d="M0 0 C0.8 -0.01 1.6 -0.01 2.43 -0.02 C3.3 -0.02 4.16 -0.02 5.05 -0.02 C5.95 -0.03 6.85 -0.03 7.78 -0.03 C9.69 -0.04 11.6 -0.04 13.51 -0.04 C16.39 -0.04 19.27 -0.06 22.16 -0.08 C38.7 -0.13 54.94 0.46 67.87 12.27 C79.21 25.13 83.3 38.41 83.49 55.21 C83.52 56.84 83.52 56.84 83.55 58.51 C83.43 73.35 77.74 84.04 67.93 94.83 C54.34 107.28 41.48 107.12 23.7 106.78 C19.71 106.71 15.73 106.68 11.75 106.66 C9.22 106.64 6.69 106.61 4.17 106.59 C2.97 106.58 1.78 106.56 0.55 106.55 C-0.54 106.53 -1.64 106.51 -2.77 106.48 C-3.73 106.47 -4.7 106.45 -5.7 106.43 C-8.01 106.15 -8.01 106.15 -10.01 104.15 C-10.34 101.03 -10.34 101.03 -10.38 97.27 C-10.41 96.04 -10.44 94.8 -10.47 93.53 C-10.01 90.15 -10.01 90.15 -8.62 87.96 C-4.53 85.12 -0.52 85.62 4.35 85.68 C5.37 85.67 6.38 85.66 7.43 85.66 C11.77 85.63 16.11 85.64 20.45 85.65 C23.63 85.66 26.8 85.64 29.97 85.61 C31.43 85.63 31.43 85.63 32.91 85.65 C40.73 85.59 46.99 83.57 53.31 78.9 C59.94 72.11 61.19 64.66 61.24 55.52 C61.27 54.66 61.29 53.79 61.31 52.9 C61.36 44.75 59.83 37.68 54.56 31.27 C53.98 30.55 53.4 29.83 52.81 29.09 C48.76 24.75 44.66 22.44 38.62 21.95 C35.75 21.87 32.89 21.84 30.01 21.84 C27.86 21.81 25.71 21.79 23.55 21.76 C20.17 21.73 16.78 21.71 13.4 21.69 C10.12 21.67 6.85 21.63 3.58 21.59 C2.56 21.59 1.55 21.59 0.5 21.59 C-0.44 21.57 -1.38 21.56 -2.35 21.55 C-3.18 21.54 -4.01 21.54 -4.86 21.53 C-7.53 21.05 -8.41 20.31 -10.01 18.15 C-10.4 14.9 -10.4 14.9 -10.38 11.15 C-10.39 9.91 -10.4 8.67 -10.4 7.4 C-10.01 4.15 -10.01 4.15 -8.67 2.27 C-5.84 0.35 -3.32 0.02 0 0 Z " fill="#FE5002" transform="translate(697.005615234375,304.854736328125)"/>
<path d="M0 0 C10.64 -0.07 21.28 -0.12 31.92 -0.16 C36.86 -0.17 41.8 -0.19 46.74 -0.23 C51.51 -0.26 56.27 -0.28 61.04 -0.28 C62.86 -0.29 64.68 -0.3 66.5 -0.32 C69.04 -0.34 71.59 -0.34 74.13 -0.34 C74.89 -0.35 75.64 -0.36 76.42 -0.37 C81.48 -0.34 81.48 -0.34 83.97 1.3 C85.72 4.18 85.39 7.31 85.31 10.56 C85.32 11.25 85.32 11.93 85.32 12.64 C85.27 17.73 85.27 17.73 83 20 C80.02 20.32 80.02 20.32 76.24 20.41 C75.25 20.44 75.25 20.44 74.23 20.47 C72.11 20.53 69.99 20.58 67.88 20.62 C66.44 20.66 65 20.7 63.57 20.74 C60.04 20.84 56.52 20.92 53 21 C52.99 22 52.98 22.99 52.98 24.02 C52.9 33.39 52.81 42.76 52.71 52.14 C52.66 56.96 52.62 61.77 52.58 66.59 C52.54 71.24 52.49 75.89 52.44 80.54 C52.42 82.32 52.41 84.09 52.4 85.87 C52.38 88.35 52.35 90.83 52.32 93.32 C52.32 94.05 52.31 94.79 52.31 95.55 C52.25 99.24 52.1 100.84 50 104 C47.27 104.28 44.79 104.37 42.06 104.31 C41.33 104.32 40.6 104.32 39.85 104.32 C36.05 104.28 34.23 104.15 31 102 C30.69 99.41 30.57 97.04 30.58 94.45 C30.57 93.28 30.57 93.28 30.56 92.08 C30.53 89.5 30.53 86.92 30.52 84.34 C30.51 82.55 30.49 80.76 30.48 78.97 C30.43 74.26 30.41 69.55 30.39 64.84 C30.35 57.29 30.29 49.74 30.23 42.19 C30.21 39.55 30.2 36.9 30.19 34.26 C30.18 32.65 30.17 31.04 30.16 29.43 C30.16 28.68 30.16 27.94 30.15 27.18 C30.43 23.8 30.43 23.8 29 21 C26.96 20.89 24.92 20.84 22.88 20.82 C21.01 20.79 21.01 20.79 19.11 20.75 C16.46 20.71 13.81 20.68 11.17 20.66 C9.92 20.63 8.67 20.6 7.38 20.57 C6.23 20.56 5.08 20.55 3.9 20.53 C1 20 1 20 -0.88 18.13 C-2.29 15.45 -2.37 13.58 -2.31 10.56 C-2.31 9.64 -2.3 8.71 -2.3 7.75 C-1.98 4.85 -1.13 2.68 0 0 Z " fill="#0E2B3C" transform="translate(530,306)"/>
<path d="M0 0 C6.32 5.43 11.46 12.69 13 21 C13.69 31.85 14 41.47 7.12 50.46 C0.97 57.27 -5.38 60.46 -14.5 61.34 C-26.53 61.67 -34.08 59.04 -43 51 C-48.83 45.17 -51.23 37.67 -51.5 29.56 C-51.15 19.7 -47.81 11.18 -41 4 C-30.2 -5.95 -12.62 -7.44 0 0 Z " fill="#FAFDFF" transform="translate(997,330)"/>
<path d="M0 0 C2.73 -0.38 2.73 -0.38 6.24 -0.39 C7.55 -0.4 8.86 -0.41 10.21 -0.42 C11.65 -0.41 13.09 -0.41 14.53 -0.4 C16 -0.4 17.47 -0.4 18.94 -0.41 C22.02 -0.41 25.1 -0.41 28.18 -0.39 C32.14 -0.37 36.09 -0.38 40.04 -0.4 C43.08 -0.41 46.11 -0.41 49.15 -0.4 C50.61 -0.4 52.06 -0.4 53.52 -0.41 C55.56 -0.42 57.6 -0.4 59.63 -0.39 C60.79 -0.39 61.95 -0.38 63.15 -0.38 C66 0 66 0 67.88 1.29 C69.82 4.25 69.39 7.64 69.31 11.06 C69.32 11.8 69.32 12.53 69.32 13.28 C69.27 18.73 69.27 18.73 67 21 C64.94 21.28 64.94 21.28 62.37 21.32 C61.41 21.34 60.45 21.36 59.46 21.38 C58.42 21.39 57.38 21.4 56.3 21.41 C54.71 21.44 54.71 21.44 53.08 21.47 C49.68 21.53 46.28 21.58 42.88 21.62 C40.57 21.66 38.27 21.7 35.96 21.74 C30.31 21.84 24.66 21.92 19 22 C17.79 25.62 17.91 28.9 17.97 32.66 C17.99 34.19 18 35.72 18.01 37.25 C18.03 39.66 18.06 42.08 18.1 44.49 C18.13 46.82 18.14 49.14 18.16 51.47 C18.17 52.2 18.19 52.92 18.2 53.67 C18.21 55.45 18.11 57.22 18 59 C16 61 16 61 12.38 61.23 C10.92 61.23 9.46 61.21 8 61.19 C7.26 61.19 6.53 61.19 5.77 61.19 C0.28 61.14 0.28 61.14 -2 60 C-2.05 52.62 -2.08 45.24 -2.1 37.86 C-2.11 34.43 -2.13 31.01 -2.15 27.58 C-2.18 23.64 -2.19 19.7 -2.2 15.76 C-2.21 14.53 -2.22 13.3 -2.23 12.03 C-2.23 10.89 -2.23 9.75 -2.23 8.57 C-2.23 7.57 -2.24 6.56 -2.24 5.52 C-2 3 -2 3 0 0 Z " fill="#101828" transform="translate(143,349)"/>
<path d="M0 0 C2.79 -0.08 5.58 -0.14 8.38 -0.19 C9.17 -0.21 9.96 -0.24 10.78 -0.26 C12.86 -0.29 14.93 -0.15 17 0 C19.05 3.07 19.25 3.67 19.24 7.12 C19.24 7.96 19.25 8.79 19.25 9.66 C19.24 10.57 19.23 11.49 19.23 12.43 C19.23 13.39 19.23 14.36 19.23 15.36 C19.23 18.55 19.21 21.75 19.2 24.95 C19.19 27.16 19.19 29.38 19.19 31.6 C19.18 37.43 19.16 43.26 19.14 49.1 C19.12 55.05 19.11 61 19.1 66.96 C19.08 78.64 19.04 90.32 19 102 C18.34 102 17.68 102 17 102 C17 102.66 17 103.32 17 104 C14.58 104.08 12.17 104.14 9.75 104.19 C9.07 104.21 8.39 104.24 7.68 104.26 C4.82 104.31 2.45 104.19 -0.2 103.06 C-3.13 99.71 -2.54 96.12 -2.49 91.82 C-2.49 90.88 -2.49 89.94 -2.5 88.97 C-2.5 85.86 -2.48 82.74 -2.46 79.63 C-2.46 77.47 -2.46 75.31 -2.46 73.15 C-2.46 68.61 -2.44 64.08 -2.41 59.55 C-2.38 53.74 -2.37 47.93 -2.37 42.11 C-2.37 37.65 -2.36 33.19 -2.35 28.72 C-2.34 26.58 -2.34 24.44 -2.33 22.3 C-2.33 19.3 -2.31 16.31 -2.29 13.31 C-2.29 12.42 -2.29 11.53 -2.29 10.62 C-2.28 9.8 -2.28 8.99 -2.27 8.14 C-2.26 7.44 -2.26 6.73 -2.26 6 C-1.96 3.67 -1.15 2.03 0 0 Z " fill="#101828" transform="translate(249,306)"/>
<path d="M0 0 C24.75 0 49.5 0 75 0 C76.65 3.3 76.14 6.94 76.12 10.56 C76.13 11.36 76.13 12.15 76.14 12.97 C76.13 18.87 76.13 18.87 75 20 C72.71 20.1 70.42 20.14 68.13 20.15 C67.05 20.15 67.05 20.15 65.95 20.16 C63.56 20.16 61.17 20.17 58.79 20.17 C57.13 20.17 55.48 20.17 53.83 20.18 C50.36 20.18 46.89 20.19 43.42 20.19 C38.96 20.19 34.51 20.2 30.06 20.22 C26.64 20.23 23.23 20.23 19.81 20.23 C18.17 20.23 16.53 20.23 14.89 20.24 C12.59 20.25 10.3 20.25 8 20.24 C6.04 20.25 6.04 20.25 4.04 20.25 C1 20 1 20 -1 18 C-1.17 15.29 -1.23 12.7 -1.19 10 C-1.19 9.26 -1.19 8.53 -1.19 7.77 C-1.14 2.28 -1.14 2.28 0 0 Z " fill="#101828" transform="translate(142,306)"/>
<path d="M0 0 C0.67 -0 1.35 -0 2.04 -0.01 C3.47 -0.01 4.89 -0 6.32 0 C8.49 0.02 10.67 0.01 12.84 -0.01 C14.23 -0.01 15.61 -0 17 0 C18.89 0 18.89 0 20.82 0.01 C25.9 0.4 28.37 1.45 32.01 5.02 C35.61 10.45 35.14 17.05 34.2 23.27 C32.84 26.18 31.76 27.18 29.2 29.27 C25.58 30.47 22.27 30.41 18.5 30.4 C17.76 30.4 17.01 30.4 16.24 30.4 C14.66 30.4 13.08 30.4 11.5 30.4 C9.08 30.39 6.65 30.4 4.23 30.4 C2.69 30.4 1.16 30.4 -0.37 30.4 C-1.46 30.4 -1.46 30.4 -2.58 30.4 C-7.69 30.38 -7.69 30.38 -8.8 29.27 C-9.05 24.79 -8.99 20.31 -8.99 15.83 C-9.01 13.93 -9.01 13.93 -9.03 11.99 C-9.03 10.78 -9.03 9.58 -9.03 8.33 C-9.04 7.22 -9.04 6.1 -9.04 4.96 C-8.53 -0.76 -4.82 0.01 0 0 Z " fill="#FAFDFF" transform="translate(1092.80078125,325.734375)"/>
<path d="M0 0 C1.11 -0.01 1.11 -0.01 2.24 -0.02 C3.81 -0.04 5.38 -0.05 6.95 -0.06 C9.34 -0.07 11.72 -0.12 14.11 -0.16 C15.64 -0.17 17.16 -0.18 18.69 -0.19 C19.75 -0.21 19.75 -0.21 20.84 -0.24 C27.15 -0.21 30.64 2.2 34.99 6.55 C37.11 9.93 37.61 12.25 37.68 16.24 C36.29 19.83 34.8 22.92 31.68 25.24 C27.05 27.1 23.13 27.5 18.16 27.5 C17.46 27.51 16.77 27.51 16.05 27.51 C14.59 27.51 13.12 27.51 11.66 27.5 C9.42 27.49 7.18 27.5 4.93 27.51 C3.51 27.51 2.08 27.51 0.66 27.5 C-1.28 27.5 -1.28 27.5 -3.25 27.5 C-6.32 27.24 -6.32 27.24 -8.32 25.24 C-9.8 17.37 -9.53 9.13 -8.32 1.24 C-6.37 -0.71 -2.67 0.03 0 0 Z " fill="#F8FCFD" transform="translate(335.32421875,325.76171875)"/>
<path d="M0 0 C0.74 0 1.48 0 2.24 0.01 C4.47 0.01 6.7 -0.01 8.94 -0.04 C10.37 -0.04 11.8 -0.04 13.23 -0.04 C14.52 -0.04 15.82 -0.05 17.16 -0.05 C22.33 0.49 25.57 2.03 29.05 5.88 C32.12 10.31 32.56 14.01 31.74 19.32 C30.04 22.4 27.93 24.73 24.74 26.32 C21.98 26.42 19.25 26.46 16.49 26.46 C15.67 26.46 14.86 26.46 14.02 26.46 C12.29 26.46 10.56 26.46 8.84 26.45 C6.19 26.45 3.54 26.45 0.88 26.46 C-0.79 26.46 -2.46 26.46 -4.14 26.46 C-4.93 26.46 -5.73 26.46 -6.55 26.46 C-12.14 26.44 -12.14 26.44 -13.26 25.32 C-13.51 21.52 -13.44 17.7 -13.45 13.88 C-13.46 12.81 -13.47 11.73 -13.48 10.62 C-13.48 9.6 -13.49 8.57 -13.49 7.51 C-13.49 6.57 -13.5 5.62 -13.5 4.64 C-12.81 -1.98 -5.04 0.02 0 0 Z " fill="#FAFDFF" transform="translate(845.2578125,325.677734375)"/>
</svg>
